#!OML:ASF F:\VICON\USERDATA\INSTALL\Justin_Nancy\Justin_Nancy.ASF
:FULLY-SPECIFIED
:DEGREES
269
root 9.23341 17.5976 5.98191 -9.86806 -80.6662 15.8929
lowerback 6.72643 1.6033 -0.324827
upperback -0.115284 2.15864 1.50737
thorax -3.96172 1.08723 1.52381
lowerneck -14.5067 -6.07828 -11.1482
upperneck 24.3377 -8.03284 7.32225
head 11.0182 -3.9696 3.3673
rclavicle 3.27995e-015 -1.59028e-015
rhumerus -24.6775 -1.59784 -88.7224
rradius 36.1363
rwrist 3.19026
rhand -12.7407 13.0011
rfingers 7.12502
rthumb 13.3431 -16.5517
lclavicle 3.27995e-015 -1.59028e-015
lhumerus -35.7486 15.5391 81.1939
lradius 25.4118
lwrist -8.3723
lhand -17.4026 26.0015
lfingers 7.12502
lthumb 8.84684 55.7961
rfemur -4.35101 4.58521 30.4096
rtibia 14.0447
rfoot -11.097 10.8298
rtoes 18.0533
lfemur -26.6091 3.28994 -14.4806
ltibia 63.9885
lfoot -2.72641 1.47632
ltoes -2.43299
270
root 9.14945 17.6079 6.05643 -18.3683 -81.6034 24.4979
lowerback 6.73396 1.71719 -0.971854
upperback 0.012833 2.24052 0.974677
thorax -3.8388 1.13553 1.3293
lowerneck -14.4731 -5.96633 -10.5999
upperneck 23.9128 -7.97573 7.31088
head 10.8195 -3.89112 3.27714
rclavicle 1.2921e-014 4.77083e-015
rhumerus -24.4755 -1.65226 -89.1669
rradius 36.4698
rwrist 3.02185
rhand -12.981 12.7869
rfingers 7.12502
rthumb 13.1115 -16.7809
lclavicle 1.2921e-014 4.77083e-015
lhumerus -35.3503 14.6489 81.0413
lradius 25.6184
lwrist -8.25
lhand -16.4251 25.8688
lfingers 7.12502
lthumb 9.79008 55.6212
rfemur -4.21818 5.12837 29.113
rtibia 14.6859
rfoot -11.3857 10.9753
rtoes 20.2412
lfemur -27.0136 3.01506 -15.5803
ltibia 62.9763
lfoot -3.38292 1.92616
ltoes -2.98138
271
root 9.06477 17.5885 6.12046 -17.8042 -82.7453 23.8555
lowerback 6.79359 1.72066 -0.321101
upperback 0.134612 2.29236 0.967509
thorax -3.72156 1.14729 0.952314
lowerneck -14.8711 -5.85978 -10.1859
upperneck 24.0165 -7.83985 7.10955
head 10.8926 -3.80531 3.14807
rclavicle -1.73937e-014 2.78299e-014
rhumerus -24.3123 -1.58631 -89.4935
rradius 36.8246
rwrist 2.64282
rhand -12.9401 12.3387
rfingers 7.12502
rthumb 13.151 -17.2266
lclavicle -1.73937e-014 2.78299e-014
lhumerus -35.0553 14.3353 80.8205
lradius 25.7185
lwrist -8.69831
lhand -16.1071 26.036
lfingers 7.12502
lthumb 10.0969 55.7738
rfemur -4.12347 4.70812 29.6424
rtibia 15.3037
rfoot -12.013 11.3814
rtoes 18.3766
lfemur -27.6258 2.79293 -14.923
ltibia 62.092
lfoot -4.33878 1.92634
ltoes -4.5754
272
root 8.98107 17.5625 6.19144 -11.0748 -83.9881 17.0133
lowerback 6.97401 1.58282 0.875779
upperback 0.155008 2.21299 1.33227
thorax -3.7692 1.08678 0.661583
lowerneck -15.1621 -5.67695 -10.0896
upperneck 24.2285 -7.50327 6.78599
head 10.9761 -3.67645 3.06102
rclavicle -1.82882e-014 -1.19271e-014
rhumerus -24.2222 -1.37902 -89.608
rradius 37.0096
rwrist 2.5587
rhand -13.0887 11.8849
rfingers 7.12502
rthumb 13.0077 -17.6896
lclavicle -1.82882e-014 -1.19271e-014
lhumerus -34.9623 14.246 80.8202
lradius 25.7322
lwrist -8.60122
lhand -16.6197 26.0449
lfingers 7.12502
lthumb 9.60228 55.8061
rfemur -3.79003 4.1232 30.8445
rtibia 15.4541
rfoot -12.4844 11.9424
rtoes 17.5323
lfemur -28.3549 2.70726 -13.5062
ltibia 61.4055
lfoot -5.42485 1.50907
ltoes -4.89851
273
root 8.90292 17.5535 6.24668 -11.6667 -85.0124 17.9052
lowerback 6.99509 1.62239 0.846427
upperback 0.0236426 2.27225 1.4954
thorax -3.92564 1.11743 0.83785
lowerneck -14.6656 -5.78019 -10.7426
upperneck 23.7571 -7.64271 7.31421
head 10.771 -3.74719 3.34667
rclavicle -7.85199e-015 3.18055e-015
rhumerus -24.1414 -1.38696 -89.5274
rradius 37.0988
rwrist 2.69208
rhand -13.0754 11.7164
rfingers 7.12502
rthumb 13.0205 -17.8573
lclavicle -7.85199e-015 3.18055e-015
lhumerus -34.8103 13.5569 81.1262
lradius 25.808
lwrist -7.98544
lhand -16.0935 25.7968
lfingers 7.12502
lthumb 10.1099 55.5339
rfemur -3.61927 4.79471 30.9333
rtibia 15.2899
rfoot -12.2492 11.9684
rtoes 22.5835
lfemur -29.3828 3.02454 -13.1884
ltibia 60.5271
lfoot -5.94572 1.38407
ltoes -3.23482
274
root 8.83656 17.5274 6.29083 -1.13269 -86.0363 8.09489
lowerback 6.76722 1.68139 1.36859
upperback -0.289441 2.40699 1.85599
thorax -4.11846 1.17517 0.906473
lowerneck -15.3576 -5.614 -10.1663
upperneck 24.4434 -7.34297 6.59366
head 11.0745 -3.63309 3.02548
rclavicle -4.76089e-014 8.74653e-015
rhumerus -24.3042 -0.934445 -89.5261
rradius 37.4489
rwrist 2.27159
rhand -13.3341 11.6628
rfingers 7.12502
rthumb 12.7711 -17.9266
lclavicle -4.76089e-014 8.74653e-015
lhumerus -34.7234 13.386 81.1761
lradius 25.8811
lwrist -8.18474
lhand -15.6646 25.7686
lfingers 7.12502
lthumb 10.5237 55.4852
rfemur -3.9707 5.26866 31.9119
rtibia 14.9796
rfoot -12.4259 11.1336
rtoes 12.4632
lfemur -31.217 3.72601 -12.0386
ltibia 59.8274
lfoot -6.3375 0.303957
ltoes -7.26422
275
root 8.73542 17.531 6.38745 -18.0401 -86.6421 24.5968
lowerback 7.26657 1.67813 0.988306
upperback -0.155001 2.36776 1.504
thorax -4.2594 1.16055 0.746331
lowerneck -15.5506 -5.56478 -9.8403
upperneck 24.6104 -7.28442 6.33051
head 11.1439 -3.60577 2.88088
rclavicle -3.33958e-014 -2.3059e-014
rhumerus -24.4581 -0.433188 -89.6465
rradius 37.8015
rwrist 1.69565
rhand -13.8487 11.5087
rfingers 7.12502
rthumb 12.275 -18.111
lclavicle -3.33958e-014 -2.3059e-014
lhumerus -34.5623 13.2548 81.042
lradius 25.8044
lwrist -8.6981
lhand -16.655 25.6504
lfingers 7.12502
lthumb 9.56826 55.4131
rfemur -2.96672 4.40709 30.7536
rtibia 14.8794
rfoot -13.8748 10.0518
rtoes 13.3767
lfemur -31.0304 3.12092 -13.1008
ltibia 58.5583
lfoot -7.05576 0.193007
ltoes -10.1167
276
root 8.66205 17.5133 6.45427 7.06712 -87.2132 -0.358363
lowerback 7.42077 1.51522 2.64622
upperback -0.193846 2.30187 1.77256
thorax -4.33278 1.08957 0.0988889
lowerneck -15.6515 -5.59636 -9.62919
upperneck 24.4935 -7.37182 6.34781
head 11.1191 -3.61985 2.83557
rclavicle -7.45443e-015 -1.82882e-014
rhumerus -24.4844 -0.0653029 -89.8065
rradius 38.1851
rwrist 1.06117
rhand -13.9435 11.4672
rfingers 7.12502
rthumb 12.1836 -18.158
lclavicle -7.45443e-015 -1.82882e-014
lhumerus -34.0265 12.9598 80.8963
lradius 25.4975
lwrist -9.11269
lhand -17.8477 25.6426
lfingers 7.12502
lthumb 8.41732 55.4549
rfemur -2.68709 4.45936 32.1947
rtibia 14.514
rfoot -15.5237 6.96534
rtoes 9.3742
lfemur -32.2036 2.71779 -11.4125
ltibia 57.5565
lfoot -7.49456 -0.354186
ltoes -11.7926
277
root 8.56521 17.5198 6.51576 4.7219 -88.2658 1.97336
lowerback 7.59815 1.46734 2.39291
upperback -0.13985 2.22265 1.83901
thorax -4.38979 1.05565 0.313855
lowerneck -15.7828 -5.52932 -9.69795
upperneck 24.5318 -7.23469 6.29698
head 11.1474 -3.56838 2.84713
rclavicle 2.38542e-014 3.18055e-015
rhumerus -24.4884 0.697068 -89.8838
rradius 38.393
rwrist 0.631814
rhand -13.7825 11.3248
rfingers 7.12502
rthumb 12.3388 -18.2911
lclavicle 2.38542e-014 3.18055e-015
lhumerus -33.768 13.1275 80.781
lradius 25.3568
lwrist -8.82146
lhand -17.801 25.9504
lfingers 7.12502
lthumb 8.46234 55.7608
rfemur -2.00784 4.36662 31.9569
rtibia 14.0663
rfoot -13.6819 10.0318
rtoes 19.6799
lfemur -32.4998 2.46226 -11.4011
ltibia 56.1019
lfoot -7.86286 -0.509314
ltoes -10.0533
278
root 8.4753 17.505 6.57168 15.2175 -89.08 -8.51771
lowerback 7.85904 1.43442 2.28521
upperback -0.148255 2.18499 2.04536
thorax -4.55814 1.03828 0.585384
lowerneck -16.0207 -5.44576 -10.2378
upperneck 24.7385 -7.03658 6.5779
head 11.2877 -3.49404 3.06938
rclavicle -6.36111e-015 3.26007e-014
rhumerus -24.5412 0.886758 -89.7794
rradius 38.5426
rwrist 0.747793
rhand -13.4518 11.6703
rfingers 7.12502
rthumb 12.6576 -17.9262
lclavicle -6.36111e-015 3.26007e-014
lhumerus -33.5994 13.3358 80.6925
lradius 25.3542
lwrist -8.65067
lhand -14.9295 25.5031
lfingers 7.12502
lthumb 11.2327 55.1824
rfemur -1.278 3.83389 32.1028
rtibia 13.3244
rfoot -13.9413 9.7208
rtoes 14.2901
lfemur -33.0012 2.17763 -11.0289
ltibia 54.74
lfoot -8.30035 -0.873163
ltoes -8.81961
279
root 8.37951 17.4927 6.63114 65.2135 -89.6636 -58.4185
lowerback 7.93492 1.54786 2.45087
upperback -0.144588 2.35267 2.03802
thorax -4.58937 1.1164 0.463684
lowerneck -16.3066 -5.34369 -11.0094
upperneck 25.0092 -6.86683 7.30183
head 11.49 -3.40253 3.49516
rclavicle -1.13307e-014 -9.54166e-015
rhumerus -24.5402 0.248151 -89.6427
rradius 38.5698
rwrist 1.1182
rhand -13.4082 11.8356
rfingers 7.12502
rthumb 12.6997 -17.7583
lclavicle -1.13307e-014 -9.54166e-015
lhumerus -33.1445 13.4444 80.4539
lradius 25.1954
lwrist -9.23817
lhand -12.4124 24.7281
lfingers 7.12502
lthumb 13.6596 54.2598
rfemur -0.598807 3.62134 32.1453
rtibia 12.5859
rfoot -14.3398 8.71691
rtoes 11.3114
lfemur -33.4598 1.8344 -10.7992
ltibia 53.1359
lfoot -8.73604 -0.987921
ltoes -10.819
280
root 8.26946 17.4979 6.68921 153.933 -89.1697 -146.946
lowerback 7.77601 1.64009 2.70889
upperback -0.132271 2.48905 1.97566
thorax -4.47229 1.17859 0.244039
lowerneck -16.3226 -5.24988 -11.1089
upperneck 24.9755 -6.76347 7.52275
head 11.4809 -3.33923 3.61086
rclavicle 6.75868e-015 6.36111e-015
rhumerus -24.5556 0.0994851 -89.6877
rradius 38.6302
rwrist 1.37773
rhand -14.2979 11.4573
rfingers 7.12502
rthumb 11.8419 -18.1879
lclavicle 6.75868e-015 6.36111e-015
lhumerus -32.7246 12.5738 80.2811
lradius 25.2561
lwrist -8.53419
lhand -14.7799 25.5516
lfingers 7.12502
lthumb 11.377 55.2229
rfemur 0.0449515 4.2953 32.1711
rtibia 11.8823
rfoot -14.4831 7.54118
rtoes 11.5579
lfemur -33.8371 1.14083 -10.4215
ltibia 51.4228
lfoot -8.60241 -0.329717
ltoes -1.80051
281
root 8.17565 17.5022 6.73663 163.866 -88.4616 -156.735
lowerback 7.97546 1.65614 2.72961
upperback -0.274788 2.52857 2.03918
thorax -4.73498 1.19406 0.285484
lowerneck -15.9825 -5.19496 -11.2919
upperneck 24.8061 -6.71665 7.69857
head 11.3575 -3.32308 3.71685
rclavicle 2.46493e-014 1.03368e-014
rhumerus -24.8416 0.360438 -89.607
rradius 38.7727
rwrist 1.17275
rhand -14.3158 11.3525
rfingers 7.12502
rthumb 11.8246 -18.2937
lclavicle 2.46493e-014 1.03368e-014
lhumerus -32.6711 11.4658 80.1594
lradius 25.5562
lwrist -7.26598
lhand -17.0326 26.6802
lfingers 7.12502
lthumb 9.20389 56.4594
rfemur 0.54999 4.29241 32.2187
rtibia 11.4203
rfoot -14.1179 7.92898
rtoes 14.9114
lfemur -34.1127 0.198811 -9.72793
ltibia 49.5425
lfoot -9.21405 -0.528761
ltoes 3.02172
282
root 8.07617 17.5024 6.79004 173.19 -87.9331 -165.799
lowerback 7.95024 1.54343 2.24974
upperback -0.388207 2.34617 2.25772
thorax -4.87012 1.11651 0.801634
lowerneck -15.9328 -4.94457 -11.3104
upperneck 24.8322 -6.31361 7.51818
head 11.3058 -3.16757 3.71632
rclavicle 2.50469e-014 2.62396e-014
rhumerus -25.0606 1.24825 -89.4022
rradius 38.8998
rwrist 0.537191
rhand -14.1842 11.3783
rfingers 7.12502
rthumb 11.9515 -18.2606
lclavicle 2.50469e-014 2.62396e-014
lhumerus -32.7533 12.1542 79.9455
lradius 25.8168
lwrist -7.38191
lhand -17.792 27.0828
lfingers 7.12502
lthumb 8.47105 56.8929
rfemur 0.795066 4.03547 31.9165
rtibia 11.1824
rfoot -14.0471 8.14165
rtoes 16.0901
lfemur -34.4715 -0.486672 -9.55097
ltibia 47.4734
lfoot -9.49861 -0.134181
ltoes 10.4001
